<?xml version="1.0" encoding="utf-8"?>
<!-- Generator: Adobe Illustrator 16.0.0, SVG Export Plug-In . SVG Version: 6.00 Build 0)  -->
<!DOCTYPE svg PUBLIC "-//W3C//DTD SVG 1.1//EN" "http://www.w3.org/Graphics/SVG/1.1/DTD/svg11.dtd">
<svg version="1.1" id="Layer_1" xmlns="http://www.w3.org/2000/svg" xmlns:xlink="http://www.w3.org/1999/xlink" x="0px" y="0px"
	 width="338.016px" height="338.018px" viewBox="0 0 338.016 338.018" enable-background="new 0 0 338.016 338.018"
	 xml:space="preserve">
<circle fill="#66A053" cx="169.008" cy="169.008" r="169.008"/>
<path fill="#FFFFFF" d="M257.258,179.542c0,32.869,3.558,59.516-26.586,59.516H110.816c-30.143,0-29.308-26.646-29.308-59.516
	v-9.763c0-32.87-2.488-59.516,27.655-59.516h121.509c30.144,0,26.586,26.646,26.586,59.516V179.542z"/>
<path fill="none" stroke="#66A053" stroke-width="9.2889" stroke-miterlimit="10" d="M85.671,112.417l68.829,73.855
	c0,0,12.655,10.665,21.471,0l74.82-72.375"/>
<g>
	<path opacity="0.2" fill="#FFFFFF" enable-background="new    " d="M48.055,50.984C18.327,81.445,0,123.084,0,169.009
		c0,93.341,75.668,169.009,169.009,169.009c45.925,0,87.564-18.326,118.025-48.055L48.055,50.984z"/>
	<path opacity="0.1" fill="#FFFFFF" enable-background="new    " d="M50.984,289.962c30.461,29.729,72.1,48.056,118.024,48.056
		c93.34,0,169.008-75.667,169.008-169.01c0-45.924-18.326-87.562-48.055-118.022L50.984,289.962z"/>
</g>
</svg>
