<?xml version="1.0" encoding="utf-8"?>
<!-- Generator: Adobe Illustrator 16.0.0, SVG Export Plug-In . SVG Version: 6.00 Build 0)  -->
<!DOCTYPE svg PUBLIC "-//W3C//DTD SVG 1.1//EN" "http://www.w3.org/Graphics/SVG/1.1/DTD/svg11.dtd">
<svg version="1.1" id="Layer_1" xmlns="http://www.w3.org/2000/svg" xmlns:xlink="http://www.w3.org/1999/xlink" x="0px" y="0px"
	 width="79.625px" height="36.125px" viewBox="0 0 79.625 36.125" enable-background="new 0 0 79.625 36.125" xml:space="preserve">
<g>
	<g>
		<path fill="#231F20" d="M3.533,13.457v2.02c0.996-1.874,2.225-2.166,3.22-2.166c2.049,0,2.985,1.142,3.454,2.605
			c1.083-2.342,2.43-2.605,3.366-2.605c3.542,0,4.01,2.986,4.01,5.24c0,1.376-0.175,3.454-0.175,4.977
			c0,0.615,0.029,2.52,1.317,2.52c0.908,0,1.639-0.966,2.108-3.188h1.083c-0.877,4.889-2.78,5.414-4.01,5.414
			c-2.459,0-3.425-2.106-3.425-4.479c0-0.729,0.088-4.303,0.088-5.093c0-2.518-0.878-3.162-1.874-3.162
			c-1.2,0-1.961,0.908-2.283,3.189v9.365H7.484v-9.776c0-1.375-0.175-2.781-1.639-2.781c-1.229,0-1.785,1.024-2.312,3.189v9.365
			H0.605V13.457H3.533z"/>
		<path fill="#231F20" d="M31.692,13.457v9.952c0,0.762,0.058,2.635,1.317,2.635c0.937,0,1.668-1.083,2.107-3.19h1.083
			c-0.878,4.892-2.781,5.416-4.068,5.416c-1.786,0-2.547-1.314-2.84-2.778c-0.585,1.521-1.961,2.778-3.805,2.778
			c-2.371,0-5.006-1.785-5.006-6.703c0-3.601,1.581-8.252,5.562-8.252c0.937,0,2.166,0.351,2.723,1.551V13.46L31.692,13.457
			L31.692,13.457z M28.765,22.854V16.18c-0.264-0.615-0.849-1.259-1.727-1.259c-2.518,0-3.483,3.72-3.483,6.438
			c0,3.336,0.966,4.685,2.664,4.685C27.418,26.043,28.765,24.639,28.765,22.854z"/>
		<path fill="#231F20" d="M45.889,13.457v14.021c1.989-0.646,3.014-1.35,3.424-4.625h1.084c-0.612,4.153-1.9,4.889-4.508,5.679
			v1.873c0,3.659-1.699,5.006-3.66,5.006c-1.932,0-3.103-1.288-3.103-2.869c0-2.021,1.933-3.308,3.835-4.099v-2.52
			c-0.732,1.025-1.874,1.76-3.279,1.76c-2.371,0-5.005-1.699-5.005-6.412c0-3.482,1.581-7.96,5.562-7.96
			c0.937,0,2.166,0.351,2.723,1.551v-1.405H45.889L45.889,13.457z M42.961,22.413v-6.234c-0.264-0.615-0.85-1.259-1.729-1.259
			c-2.519,0-3.482,3.542-3.482,6.146c0,3.133,0.966,4.392,2.664,4.392C41.585,25.458,42.961,24.141,42.961,22.413z M42.961,31.663
			v-2.049c-1.934,0.878-2.693,1.728-2.693,2.81c0,0.879,0.526,1.465,1.405,1.465C42.727,33.889,42.961,33.039,42.961,31.663z"/>
		<path fill="#231F20" d="M60.084,13.457v14.021c1.99-0.646,3.016-1.35,3.425-4.625h1.083c-0.615,4.153-1.902,4.889-4.508,5.679
			v1.873c0,3.659-1.697,5.006-3.659,5.006c-1.932,0-3.103-1.288-3.103-2.869c0-2.021,1.932-3.308,3.835-4.099v-2.52
			c-0.732,1.025-1.874,1.76-3.279,1.76c-2.371,0-5.005-1.699-5.005-6.412c0-3.482,1.58-7.96,5.562-7.96
			c0.937,0,2.166,0.351,2.723,1.551v-1.405H60.084L60.084,13.457z M57.157,22.413v-6.234c-0.265-0.615-0.851-1.259-1.728-1.259
			c-2.521,0-3.484,3.542-3.484,6.146c0,3.133,0.967,4.392,2.664,4.392C55.781,25.458,57.157,24.141,57.157,22.413z M57.157,31.663
			v-2.049c-1.933,0.878-2.693,1.728-2.693,2.81c0,0.879,0.526,1.465,1.405,1.465C56.923,33.889,57.157,33.039,57.157,31.663z"/>
		<path fill="#231F20" d="M69.859,22.854c-0.438,2.106-1.172,3.189-2.107,3.189c-1.258,0-1.316-1.873-1.316-2.635v-9.952h-2.928
			v10.567c0,1.899,0.674,4.244,3.366,4.244c1.288,0,3.19-0.526,4.069-5.416h-1.084V22.854z"/>
		<path fill="#231F20" d="M72.641,22.238c0.293,3.103,1.697,3.805,3.366,3.805c1.259,0,2.431-0.38,3.161-1.434
			c0.029,0.263,0.059,0.523,0.059,0.729c0,1.756-1.961,2.93-4.127,2.93c-2.635,0-5.592-1.814-5.592-6.765
			c0-3.278,1.376-8.196,5.592-8.196c1.935,0,3.896,0.703,3.896,3.806C78.992,19.838,76.592,21.799,72.641,22.238z M77.119,16.823
			c0-1.464-0.527-2.079-1.465-2.079c-2.049,0-3.043,3.483-3.043,6.354C75.361,20.657,77.119,19.02,77.119,16.823z"/>
	</g>
	<g>
		<g enable-background="new    ">
			<path fill="#231F20" d="M1.976,1.812v3.31h3.076v1.37H1.976v4.694H0.605V0.44h4.447v1.371L1.976,1.812L1.976,1.812z"/>
		</g>
		<g enable-background="new    ">
			<path fill="#231F20" d="M6.028,11.171V0.426h1.371v9.375h3.309v1.37H6.028z"/>
		</g>
		<g enable-background="new    ">
			<path fill="#231F20" d="M13.479,11.171c-0.515,0-0.928-0.092-1.239-0.277c-0.311-0.185-0.544-0.374-0.7-0.568
				c-0.408-0.524-0.612-1.264-0.612-2.216V3.487c0-0.952,0.204-1.69,0.612-2.216c0.078-0.097,0.172-0.194,0.284-0.291
				c0.112-0.098,0.248-0.188,0.408-0.27c0.161-0.083,0.343-0.151,0.547-0.204c0.204-0.054,0.438-0.081,0.7-0.081
				c0.525,0,0.94,0.093,1.247,0.277c0.307,0.184,0.537,0.374,0.692,0.568c0.408,0.525,0.612,1.264,0.612,2.216v4.622
				c0,0.952-0.204,1.691-0.612,2.216c-0.155,0.194-0.386,0.384-0.692,0.568C14.419,11.079,14.004,11.171,13.479,11.171z
				 M13.479,1.812c-0.107,0-0.226,0.01-0.357,0.029c-0.131,0.02-0.26,0.08-0.387,0.182c-0.126,0.103-0.231,0.268-0.313,0.496
				s-0.124,0.552-0.124,0.969V8.11c0,0.428,0.041,0.756,0.124,0.984c0.083,0.229,0.187,0.394,0.313,0.495
				c0.126,0.103,0.255,0.163,0.387,0.183c0.131,0.02,0.25,0.029,0.357,0.029c0.097,0,0.214-0.01,0.35-0.029
				c0.136-0.02,0.267-0.08,0.394-0.183c0.126-0.102,0.231-0.267,0.313-0.495c0.082-0.228,0.124-0.557,0.124-0.984V3.487
				c0-0.417-0.042-0.74-0.124-0.969s-0.188-0.394-0.313-0.496C14.097,1.92,13.965,1.86,13.829,1.84
				C13.693,1.821,13.576,1.812,13.479,1.812z"/>
			<path fill="#231F20" d="M26.819,0.44l-2.376,10.745h-1.108l-1.502-6.867l-1.516,6.867h-1.108L16.832,0.44h1.414l1.516,6.853
				l1.517-6.853h1.108l1.501,6.853l1.517-6.853H26.819z"/>
		</g>
		<g enable-background="new    ">
			<path fill="#231F20" d="M28.699,1.812v3.31h3.076v1.37h-3.076v3.324h3.076v1.37h-4.447V0.44h4.447v1.371L28.699,1.812
				L28.699,1.812z"/>
			<path fill="#231F20" d="M36.921,5.894c0.263,0.253,0.464,0.554,0.605,0.903c0.141,0.351,0.211,0.749,0.211,1.196v3.178h-1.385
				V7.993c0-0.943-0.457-1.415-1.371-1.415h-0.685h-0.175v4.593H32.75V0.426h2.23c0.923,0,1.619,0.272,2.085,0.816
				c0.428,0.496,0.642,1.245,0.642,2.245c0,0.992-0.214,1.745-0.642,2.26C37.045,5.768,37.023,5.791,37,5.82
				C36.978,5.85,36.951,5.874,36.921,5.894z M34.982,5.193c0.37,0,0.625-0.044,0.766-0.131c0.141-0.088,0.23-0.155,0.27-0.204
				c0.214-0.272,0.321-0.729,0.321-1.371c0-0.359-0.029-0.648-0.087-0.867c-0.059-0.219-0.144-0.389-0.255-0.51
				c-0.112-0.122-0.252-0.202-0.422-0.241c-0.17-0.038-0.367-0.058-0.591-0.058h-0.86v3.382h0.175H34.982z"/>
		</g>
		<g enable-background="new    ">
			<path fill="#231F20" d="M40.814,11.171c-0.855,0-1.501-0.277-1.939-0.831c-0.418-0.515-0.627-1.254-0.627-2.216V7.438h1.371
				v0.686c0,0.632,0.111,1.084,0.335,1.355c0.049,0.068,0.136,0.139,0.263,0.212C40.343,9.763,40.543,9.8,40.814,9.8
				c0.263,0,0.472-0.056,0.627-0.168c0.156-0.111,0.273-0.248,0.356-0.408c0.082-0.16,0.138-0.335,0.16-0.524
				c0.022-0.189,0.037-0.357,0.037-0.503c0-0.253-0.039-0.467-0.117-0.642C41.8,7.38,41.697,7.232,41.57,7.11
				c-0.127-0.121-0.268-0.223-0.422-0.306c-0.155-0.083-0.312-0.158-0.467-0.227L40.42,6.461c-0.156-0.068-0.353-0.163-0.59-0.284
				c-0.238-0.121-0.474-0.294-0.708-0.518c-0.583-0.563-0.875-1.283-0.875-2.158c0-0.456,0.061-0.874,0.182-1.253
				c0.122-0.38,0.296-0.702,0.525-0.97s0.5-0.477,0.816-0.627s0.664-0.227,1.042-0.227c0.523,0,0.938,0.093,1.246,0.277
				c0.307,0.185,0.537,0.374,0.691,0.568c0.418,0.535,0.627,1.278,0.627,2.23v0.686h-1.385V3.502c0-0.417-0.042-0.743-0.125-0.977
				c-0.082-0.233-0.188-0.4-0.312-0.503C41.43,1.92,41.298,1.86,41.161,1.84c-0.136-0.02-0.252-0.029-0.351-0.029
				c-0.281,0-0.5,0.067-0.657,0.204C40,2.151,39.881,2.314,39.798,2.503s-0.134,0.379-0.153,0.568s-0.029,0.333-0.029,0.43
				c0,0.253,0.039,0.47,0.117,0.649c0.078,0.18,0.18,0.335,0.306,0.466c0.126,0.132,0.27,0.243,0.43,0.336
				c0.161,0.093,0.328,0.173,0.504,0.24l0.232,0.103c0.136,0.058,0.322,0.144,0.562,0.255c0.237,0.111,0.474,0.279,0.707,0.503
				c0.603,0.554,0.902,1.271,0.902,2.146c0,0.826-0.205,1.511-0.611,2.056C42.291,10.865,41.641,11.171,40.814,11.171z"/>
			<path fill="#231F20" d="M52.492,5.806c0.059,0.059,0.097,0.107,0.115,0.146c0.418,0.506,0.627,1.245,0.627,2.217
				c0,0.981-0.209,1.715-0.627,2.201c-0.438,0.544-1.107,0.816-2.012,0.816h-0.699h-1.371v-1.37V0.44h2.07
				c0.912,0,1.584,0.272,2.012,0.816c0.418,0.486,0.627,1.22,0.627,2.202c0,0.972-0.209,1.71-0.627,2.216
				C52.589,5.704,52.551,5.747,52.492,5.806z M49.896,5.121h0.699c0.312,0,0.533-0.037,0.672-0.109
				c0.135-0.073,0.229-0.144,0.275-0.212c0.203-0.243,0.307-0.689,0.307-1.341c0-0.38-0.031-0.679-0.096-0.897
				s-0.148-0.384-0.263-0.495s-0.245-0.183-0.401-0.212c-0.154-0.028-0.318-0.043-0.494-0.043h-0.699V5.121z M50.598,9.815
				c0.174,0,0.34-0.015,0.494-0.044c0.156-0.029,0.289-0.1,0.401-0.212c0.112-0.111,0.198-0.276,0.263-0.495
				c0.062-0.219,0.096-0.518,0.096-0.896c0-0.389-0.035-0.695-0.104-0.919s-0.158-0.391-0.27-0.503
				c-0.111-0.111-0.244-0.182-0.396-0.211c-0.149-0.029-0.312-0.044-0.487-0.044h-0.699v3.324H50.598z"/>
			<path fill="#231F20" d="M61.079,0.44l-3.076,5.54v5.205h-1.37V5.98L53.57,0.44h1.574l2.174,3.937l2.186-3.937H61.079z"/>
		</g>
	</g>
	<g>
		<path fill="#EFC142" d="M64.559,6.209c-0.297,0.447-1.168,0.356-1.94-0.204c-0.777-0.56-1.165-1.377-0.868-1.825
			c0.298-0.448,1.168-0.356,1.941,0.204C64.468,4.944,64.855,5.761,64.559,6.209z"/>
		<path fill="#EFC142" d="M65.1,6.038c-0.521,0.036-0.996-0.73-1.059-1.712c-0.062-0.982,0.309-1.808,0.83-1.844
			s0.994,0.73,1.059,1.712C65.991,5.176,65.62,6.001,65.1,6.038z"/>
		<path fill="#EFC142" d="M65.507,6.215c-0.313-0.434,0.04-1.267,0.793-1.861s1.62-0.723,1.935-0.289
			c0.315,0.434-0.039,1.267-0.793,1.861C66.688,6.52,65.823,6.649,65.507,6.215z"/>
		<path fill="#EFC142" d="M65.697,6.676c0.139-0.525,0.988-0.738,1.9-0.476c0.907,0.262,1.532,0.899,1.396,1.424
			c-0.14,0.524-0.99,0.738-1.9,0.476C66.184,7.838,65.559,7.201,65.697,6.676z"/>
		<path fill="#EFC142" d="M64.537,6.826c0.115,0.529-0.539,1.14-1.46,1.363c-0.923,0.223-1.763-0.026-1.877-0.556
			c-0.115-0.529,0.538-1.14,1.46-1.363S64.422,6.295,64.537,6.826z"/>
		<path fill="#EFC142" d="M64.828,7.085c0.461,0.255,0.477,1.167,0.033,2.036c-0.442,0.87-1.176,1.367-1.637,1.112
			s-0.479-1.167-0.035-2.036C63.634,7.327,64.366,6.83,64.828,7.085z"/>
		<path fill="#EFC142" d="M65.463,6.917c0.497-0.167,1.135,0.456,1.426,1.392s0.123,1.831-0.373,1.999
			c-0.498,0.167-1.137-0.456-1.428-1.392C64.798,7.979,64.965,7.084,65.463,6.917z"/>
		<path fill="#EFC142" d="M66.336,6.828c-0.251,0.585-0.908,0.847-1.468,0.586c-0.56-0.261-0.81-0.946-0.56-1.531
			c0.252-0.584,0.906-0.847,1.469-0.585C66.337,5.558,66.587,6.244,66.336,6.828z"/>
	</g>
</g>
</svg>
