<?xml version="1.0" encoding="utf-8"?>
<!-- Generator: Adobe Illustrator 16.0.0, SVG Export Plug-In . SVG Version: 6.00 Build 0)  -->
<!DOCTYPE svg PUBLIC "-//W3C//DTD SVG 1.1//EN" "http://www.w3.org/Graphics/SVG/1.1/DTD/svg11.dtd">
<svg version="1.1" id="Layer_1" xmlns="http://www.w3.org/2000/svg" xmlns:xlink="http://www.w3.org/1999/xlink" x="0px" y="0px"
	 width="417.947px" height="398.95px" viewBox="0 0 417.947 398.95" enable-background="new 0 0 417.947 398.95"
	 xml:space="preserve">
<image overflow="visible" width="1741" height="1662" xlink:href="../../../../../../../../../Desktop/Algonquin Y2/06 Design for Interactive 2/Final Project/Images/map.jpg"  transform="matrix(0.24 0 0 0.24 0.0537 -0.0249)">
</image>
<image overflow="visible" enable-background="new    " width="418" height="399" xlink:href="../../../../../../../../../Desktop/Screen Shot 2013-12-03 at 1.24.03 PM.png"  transform="matrix(0.9999 0 0 0.9999 493.999 -5.8218)">
</image>
<rect fill="none" width="417.947" height="398.95"/>
<g>
	<path d="M384.478,892.741l-7,15.949h5.5c0,0,1.639-17.977,14.5-15.449l21.5,15.449h7
		C425.978,908.69,393.978,876.79,384.478,892.741z"/>
	<path d="M771.925,534.741v-9.5l-16.947-15.5h-9.5l-106,145l-11.5-6.5l103-138.5h-18l-177,246l-52.5-115.5l39-18l23.5,55
		c0,0,6,6,5.5-4l-22-54l23-9.5l17.5,36c0,0,7.5,8.5,6-2.5l-18-36c0,0,30-11.5,39-19.5c0,0,25.5-25.5,26-33c0,0,5-14-11-33l-5.858-12
		h-9.642l4.5,5.5l-67.5,29.5l-17-35h-6.5l14.5,37l-64.5,30l-8-13.5c0,0-0.5-12.5-4-15.5l7.5-38h-17.5l-4,10.5l-10.5-10.5h-13l28,48
		c0,0,18.5,39.5,18,47.5l-53.5,57.5l-18.5,8.5c0,0-13.5,3-4.5,20.5l11,25.5l-18,7.5c0,0-5,4.5,0,6.5l21-8l37.5,85.5
		c0,0,6.5,4.5,5.5-3l-37-84.5l43-16l29.5,63.5c0,0,9,2,5-5.5l-28-59.5l40.5-18l33.5,73.5c0,0,0.5,4.5,2,8.5l-33.5,43l-27.5-20.5
		c0,0-5.5-3.5-3,2.5l27.167,22.166l-62.667,93.783h14.333l80-111.949c0,0,17.333-8,14,0c0,0-78,95.9-79.333,111.949h8l10.667-15.283
		l10,15.283h8l-11.333-25.283l22.666-32.469l24.667,57.752h7.093c0,0-19.037-64.064-27.093-65.949l30.667-36.666
		c0,0,15.333,36.666,21.333,36l22.666,60.666l-12.666,5.949h28l-29.334-75.949l87.333-34.002l48,109.951h8l-23.333-53.283
		l83.614,15.332v-10l-86.281-14.666l-22-52.889l44.667-17.777c0,0,2.667,24.334,31.333,31.332l32.281,7.502v-8.5
		c0,0-46.447-5.5-50.947-14.5l-6.5-15.834l26.5-13.166c0,0,30.947-24.5,30.947-31v-11.5c0,0-23.447,29.5-36.447,36
		c0,0,34.395-32.5,36.447-42v-14.5c0,0-25.447,39-46.447,54c0,0-3.5,6-3,8l-61,27l-15-39.5c0,0,5-7,20-9.5c0,0,54-19.5,73.5-66.5
		l31.947-68.5v-17l-43.947,94.5c0,0-26.5,33.5-58,45.5c0,0-26,8.5-26.5,13l-20.5-51.5l126.5-169L771.925,534.741z M603.978,523.241
		l10.5,17.5c13.5,25.5-59.5,58-59.5,58l-20-46.5L603.978,523.241z M527.978,556.491l20.75,45.75l-69.25,28.25l-18-46.25
		C489.728,565.991,527.978,556.491,527.978,556.491z M396.978,714.241l-12.5-34l18.5-9c8-5,57.5-58.5,57.5-58.5l26,65.5
		L396.978,714.241z M653.478,790.741l-87,34l-16.5-37.5l68-91L653.478,790.741z M546.478,776.741l-3.5-8l79.5-114l10,7.5
		L546.478,776.741z"/>
</g>
<rect fill="none" stroke="#000000" stroke-width="3" stroke-miterlimit="10" width="417.947" height="398.95"/>
<path fill="#F05B42" d="M-327.383,490.438c0,6.195-5.023,11.221-11.219,11.221H-505.92c-6.196,0-11.219-5.023-11.219-11.221v-71.885
	c0-6.195,5.023-11.219,11.219-11.219h167.318c6.196,0,11.219,5.023,11.219,11.219V490.438z"/>
<circle fill="#EEC141" cx="-293.107" cy="183.439" r="149.615"/>
</svg>
