<?xml version="1.0" encoding="utf-8"?>
<!-- Generator: Adobe Illustrator 16.0.0, SVG Export Plug-In . SVG Version: 6.00 Build 0)  -->
<!DOCTYPE svg PUBLIC "-//W3C//DTD SVG 1.1//EN" "http://www.w3.org/Graphics/SVG/1.1/DTD/svg11.dtd">
<svg version="1.1" id="Layer_1" xmlns="http://www.w3.org/2000/svg" xmlns:xlink="http://www.w3.org/1999/xlink" x="0px" y="0px"
	 width="338.016px" height="338.018px" viewBox="0 0 338.016 338.018" enable-background="new 0 0 338.016 338.018"
	 xml:space="preserve">
<circle fill="#66A053" cx="169.008" cy="169.008" r="169.008"/>
<g>
	<circle fill="#FFFFFF" cx="169.312" cy="132.739" r="60.656"/>
	<polygon fill="#FFFFFF" points="118.106,165.264 168.544,265.917 220.518,165.264 	"/>
	<circle fill="#66A053" cx="169.312" cy="138.036" r="26.302"/>
</g>
<path opacity="0.2" fill="#FFFFFF" enable-background="new    " d="M48.055,50.861C18.327,81.322,0,122.961,0,168.885
	c0,93.341,75.668,169.009,169.009,169.009c45.925,0,87.564-18.326,118.025-48.055L48.055,50.861z"/>
<path opacity="0.1" fill="#FFFFFF" enable-background="new    " d="M50.984,289.839c30.461,29.729,72.1,48.056,118.024,48.056
	c93.34,0,169.008-75.667,169.008-169.01c0-45.924-18.326-87.562-48.055-118.022L50.984,289.839z"/>
</svg>
