<?xml version="1.0" encoding="utf-8"?>
<!-- Generator: Adobe Illustrator 16.0.0, SVG Export Plug-In . SVG Version: 6.00 Build 0)  -->
<!DOCTYPE svg PUBLIC "-//W3C//DTD SVG 1.1//EN" "http://www.w3.org/Graphics/SVG/1.1/DTD/svg11.dtd">
<svg version="1.1" id="Layer_1" xmlns="http://www.w3.org/2000/svg" xmlns:xlink="http://www.w3.org/1999/xlink" x="0px" y="0px"
	 width="338.016px" height="338.018px" viewBox="0 0 338.016 338.018" enable-background="new 0 0 338.016 338.018"
	 xml:space="preserve">
<path fill="none" stroke="#FFFFFF" stroke-width="8.266" stroke-miterlimit="10" d="M241.002,640.056H121.145"/>
<circle fill="#66A053" cx="169.008" cy="169.008" r="169.008"/>
<g>
	<path fill="#FFFFFF" d="M60.546,167.148c0,0-13.878-9.026-7.423-33.269c0,0,3.439-15.339,5.064-18.033
		c0,0,1.655-7.378,15.41-11.429c0,0,40.078-11.402,93.214-13.758c0,0,56.04,0.471,89.595,12.074c0,0,15.104,1.757,19.539,28.036
		c0,0,6.891,23.841-7.546,33.651c0,0-5.674,2.265-22.583-2.345c0,0-32.61-9.762-32.133-19.172c0,0-0.504-7.451,3.881-12.451
		c0,0,3.471-8.194-6.221-12.27c0,0-65.885-4.445-93.348,1.63c0,0-7.718,2.889-6.496,10.778c0,0,7.75,9.079,2.436,18.217
		C113.937,148.809,89.429,167.781,60.546,167.148z"/>
	<path fill="none" stroke="#66A053" stroke-width="8" stroke-miterlimit="10" d="M117.9,124.729c0,0-51.561,7.065-74.833,32.979"/>
	<path fill="none" stroke="#66A053" stroke-width="8" stroke-miterlimit="10" d="M279.034,148.809c0,0-42.676-29.784-77.354-26.528"
		/>
</g>
<path fill="#FFFFFF" d="M114.123,192.235c0,0-14.214,19.189-15.99,19.898c0,0-3.02,2.043-3.02,8.174v29.047
	c0,0,0,8.262,11.193,8.262c0,0,14.125,0.533,19.988-1.598h81.549c0,0,24.251,5.33,29.048-7.729v-29.316c0,0,0.267-5.33-1.599-7.461
	c0,0-7.841-10.051-19.033-19.379l-5.375-1.875c0,0-7.572-48.835-7.572-62.694H190.52l-0.801,15.19v3.731
	c0,0-18.921-15.724-49.035-1.333l-1.066-17.589h-13.325l-2.665,24.784c0,0-3.464,36.511-4.531,37.843
	C119.097,190.192,117.231,189.925,114.123,192.235z"/>
<ellipse fill="none" stroke="#66A053" stroke-width="6.9605" stroke-miterlimit="10" cx="164.5" cy="200.762" rx="35.992" ry="27.246"/>
<g>
	<path opacity="0.2" fill="#FFFFFF" enable-background="new    " d="M48.055,49.104C18.327,79.565,0,121.203,0,167.128
		c0,93.341,75.668,169.009,169.009,169.009c45.925,0,87.564-18.326,118.025-48.055L48.055,49.104z"/>
	<path opacity="0.1" fill="#FFFFFF" enable-background="new    " d="M50.984,288.081c30.461,29.73,72.1,48.057,118.024,48.057
		c93.34,0,169.008-75.668,169.008-169.01c0-45.924-18.326-87.562-48.055-118.022L50.984,288.081z"/>
</g>
</svg>
