<?xml version="1.0" encoding="utf-8"?>
<!-- Generator: Adobe Illustrator 16.0.0, SVG Export Plug-In . SVG Version: 6.00 Build 0)  -->
<!DOCTYPE svg PUBLIC "-//W3C//DTD SVG 1.1//EN" "http://www.w3.org/Graphics/SVG/1.1/DTD/svg11.dtd">
<svg version="1.1" id="Layer_1" xmlns="http://www.w3.org/2000/svg" xmlns:xlink="http://www.w3.org/1999/xlink" x="0px" y="0px"
	 width="338.016px" height="338.018px" viewBox="0 0 338.016 338.018" enable-background="new 0 0 338.016 338.018"
	 xml:space="preserve">
<circle fill="#66A053" cx="169.008" cy="169.008" r="169.008"/>
<g>
	<path fill="#FFFFFF" d="M159.054,161.055c-7.683,11.563-30.205,9.215-50.275-5.28c-20.081-14.479-30.121-35.612-22.427-47.177
		c7.688-11.584,30.199-9.22,50.275,5.269C156.706,128.362,166.753,149.479,159.054,161.055z"/>
	<path fill="#FFFFFF" d="M173.011,156.63c-13.479,0.93-25.731-18.894-27.357-44.278c-1.616-25.389,7.985-46.742,21.466-47.677
		c13.48-0.932,25.726,18.889,27.347,44.282C196.098,134.35,186.495,155.69,173.011,156.63z"/>
	<path fill="#FFFFFF" d="M183.581,161.207c-8.15-11.222,1.023-32.766,20.502-48.125c19.474-15.363,41.879-18.7,50.021-7.483
		c8.152,11.227-1.023,32.771-20.499,48.131C214.136,169.086,191.741,172.435,183.581,161.207z"/>
	<path fill="#FFFFFF" d="M188.487,173.126c3.592-13.573,25.596-19.084,49.145-12.313c23.537,6.777,39.703,23.266,36.106,36.842
		c-3.596,13.563-25.595,19.074-49.136,12.297C201.062,203.182,184.893,186.701,188.487,173.126z"/>
	<path fill="#FFFFFF" d="M158.485,177.002c2.989,13.695-13.929,29.487-37.757,35.256c-23.835,5.775-45.559-0.664-48.537-14.378
		c-2.975-13.692,13.935-29.484,37.771-35.262C133.789,156.851,155.518,163.284,158.485,177.002z"/>
	<path fill="#FFFFFF" d="M166.005,183.707c11.935,6.598,12.335,30.171,0.896,52.648c-11.453,22.483-30.409,35.349-42.337,28.757
		c-11.94-6.604-12.33-30.172-0.893-52.652C135.124,189.976,154.079,177.112,166.005,183.707z"/>
	<path fill="#FFFFFF" d="M183.506,181.521c12.854-4.328,29.365,11.793,36.875,36.008c7.519,24.207,3.186,47.352-9.67,51.686
		c-12.858,4.33-29.371-11.796-36.879-35.995C166.312,208.995,170.639,185.856,183.506,181.521z"/>
	<path fill="#FFFFFF" d="M205,177.066c-6.489,15.127-23.485,21.903-37.951,15.163c-14.468-6.757-20.931-24.471-14.441-39.594
		c6.495-15.111,23.481-21.898,37.95-15.14C205.027,144.231,211.491,161.956,205,177.066z"/>
</g>
<g>
	<path fill="#EFC142" d="M482.608,178.498c-5.344,8.044-21.012,6.409-34.975-3.674c-13.969-10.074-20.953-24.775-15.602-32.82
		c5.348-8.059,21.01-6.413,34.975,3.666C480.975,155.754,487.965,170.444,482.608,178.498z"/>
	<path fill="#EFC142" d="M492.319,175.42c-9.379,0.646-17.902-13.144-19.033-30.804c-1.123-17.662,5.555-32.517,14.934-33.167
		c9.379-0.648,17.896,13.14,19.023,30.806C508.379,159.92,501.698,174.766,492.319,175.42z"/>
	<path fill="#EFC142" d="M499.67,178.604c-5.67-7.808,0.713-22.794,14.262-33.479c13.551-10.688,29.137-13.009,34.803-5.207
		c5.672,7.811-0.717,22.798-14.264,33.483C520.926,184.085,505.348,186.414,499.67,178.604z"/>
	<path fill="#EFC142" d="M503.084,186.895c2.498-9.441,17.807-13.275,34.189-8.566c16.375,4.716,27.619,16.188,25.117,25.631
		c-2.502,9.437-17.805,13.27-34.184,8.555C511.831,207.804,500.584,196.339,503.084,186.895z"/>
	<path fill="#EFC142" d="M482.213,189.591c2.078,9.528-9.689,20.515-26.268,24.527c-16.582,4.018-31.693-0.462-33.766-10.003
		c-2.068-9.525,9.693-20.513,26.275-24.53C465.032,175.573,480.149,180.047,482.213,189.591z"/>
	<path fill="#EFC142" d="M487.444,194.256c8.303,4.591,8.582,20.988,0.623,36.626c-7.967,15.643-21.154,24.592-29.451,20.005
		c-8.309-4.595-8.578-20.988-0.623-36.628C465.961,198.617,479.147,189.667,487.444,194.256z"/>
	<path fill="#EFC142" d="M499.62,192.734c8.941-3.012,20.428,8.204,25.652,25.05c5.23,16.841,2.215,32.94-6.727,35.957
		c-8.945,3.012-20.432-8.207-25.656-25.041C487.659,211.849,490.668,195.751,499.62,192.734z"/>
	<path fill="#EFC142" d="M514.573,189.635c-4.516,10.524-16.34,15.238-26.402,10.551c-10.062-4.701-14.561-17.023-10.045-27.545
		c4.518-10.514,16.334-15.234,26.4-10.532C514.59,166.794,519.086,179.125,514.573,189.635z"/>
</g>
<circle fill="#66A053" cx="171.008" cy="173.148" r="13.754"/>
<path fill="#66A053" d="M242.995,182.988c3.744,0.726,6.221,4.213,5.529,7.789l0,0c-0.691,3.575-4.29,5.885-8.037,5.159
	l-69.273-13.417c-3.747-0.728-6.223-4.213-5.53-7.788l0,0c0.692-3.576,4.291-5.885,8.038-5.16L242.995,182.988z"/>
<path fill="#66A053" d="M176.692,171.662c2.407,1.838,2.568,5.676,0.359,8.572l0,0c-2.209,2.895-5.953,3.751-8.362,1.911l-44.536-34
	c-2.409-1.84-2.57-5.678-0.361-8.572l0,0c2.21-2.896,5.954-3.75,8.363-1.911L176.692,171.662z"/>
<g>
	<path opacity="0.2" fill="#FFFFFF" enable-background="new    " d="M48.055,50.984C18.327,81.445,0,123.084,0,169.009
		c0,93.341,75.668,169.009,169.009,169.009c45.923,0,87.562-18.326,118.023-48.055L48.055,50.984z"/>
	<path opacity="0.1" fill="#FFFFFF" enable-background="new    " d="M52.718,292.314c30.461,29.729,72.1,48.055,118.025,48.055
		c93.34,0,169.008-75.667,169.008-169.009c0-45.924-18.326-87.562-48.055-118.023L52.718,292.314z"/>
</g>
</svg>
